<?xml version="1.0" encoding="UTF-8"?>
<svg id="Layer_1" data-name="Layer 1" xmlns="http://www.w3.org/2000/svg" xmlns:xlink="http://www.w3.org/1999/xlink" viewBox="0 0 1080 1080">
  <defs>
    <style>
      .cls-1 {
        stroke: #c15b5e;
        stroke-width: 5px;
      }

      .cls-1, .cls-2 {
        fill: #fff;
      }

      .cls-1, .cls-2, .cls-3 {
        stroke-miterlimit: 10;
      }

      .cls-4, .cls-3 {
        fill: none;
      }

      .cls-4, .cls-5, .cls-6 {
        stroke-width: 0px;
      }

      .cls-2 {
        stroke: #326992;
        stroke-width: 7px;
      }

      .cls-3 {
        stroke: #231f20;
      }

      .cls-7 {
        fill: #231f20;
        font-family: SourceSansRoman-Regular, 'Source Sans Variable';
        font-size: 249.13px;
        font-variation-settings: 'wght' 400;
      }

      .cls-5 {
        fill: #4688bc;
      }

      .cls-6 {
        fill: #f37476;
      }
    </style>
    <symbol id="Arrow_29" data-name="Arrow 29" viewBox="0 0 53.77 19.51">
      <g>
        <rect class="cls-4" x="0" y="0" width="45.72" height="19.51"/>
        <polygon class="cls-5" points="53.77 9.75 30.61 19.51 32.74 14.51 8.05 14.51 8.05 5 32.74 5 30.61 0 53.77 9.75"/>
      </g>
    </symbol>
  </defs>
  <rect class="cls-4" x="510.12" y="799.25" width="52.07" height="133.97"/>
  <polygon class="cls-6" points="536.15 775.65 562.19 843.51 548.85 837.28 548.85 909.62 523.46 909.62 523.46 837.28 510.12 843.51 536.15 775.65"/>
  <use width="53.77" height="19.51" transform="translate(619.19 763.85) rotate(90) scale(2.93 2.67)" xlink:href="#Arrow_29"/>
  <rect class="cls-4" x="567.12" y="181.34" width="52.07" height="133.97"/>
  <polygon class="cls-6" points="593.16 338.9 567.12 271.04 580.46 277.27 580.46 204.94 605.85 204.94 605.85 277.27 619.19 271.04 593.16 338.9"/>
  <use width="53.77" height="19.51" transform="translate(510.12 350.7) rotate(-90) scale(2.93 2.67)" xlink:href="#Arrow_29"/>
  <rect class="cls-4" x="791.87" y="670.62" width="52.07" height="133.97" transform="translate(-229.83 1077.13) rotate(-60)"/>
  <polygon class="cls-6" points="739.46 692.32 811.24 703.7 799.18 712.14 861.82 748.31 849.13 770.29 786.49 734.13 785.21 748.79 739.46 692.32"/>
  <use width="53.77" height="19.51" transform="translate(770.76 614.5) rotate(30) scale(2.93 2.67)" xlink:href="#Arrow_29"/>
  <rect class="cls-4" x="285.24" y="312.3" width="52.07" height="133.97" transform="translate(-172.83 459.22) rotate(-60)"/>
  <polygon class="cls-6" points="389.73 424.57 317.94 413.19 330 404.75 267.36 368.59 280.06 346.6 342.7 382.77 343.98 368.1 389.73 424.57"/>
  <use width="53.77" height="19.51" transform="translate(358.42 502.39) rotate(-150) scale(2.93 2.67)" xlink:href="#Arrow_29"/>
  <rect class="cls-4" x="779.42" y="402.61" width="133.97" height="52.07" transform="translate(-100.93 480.63) rotate(-30)"/>
  <polygon class="cls-6" points="767.96 473.95 813.71 417.46 814.99 432.13 877.63 395.97 890.33 417.95 827.68 454.12 839.75 462.56 767.96 473.95"/>
  <use width="53.77" height="19.51" transform="translate(716.22 407.93) rotate(-30) scale(2.93 2.67)" xlink:href="#Arrow_29"/>
  <rect class="cls-4" x="215.8" y="662.21" width="133.97" height="52.07" transform="translate(-306.24 233.6) rotate(-30)"/>
  <polygon class="cls-6" points="361.22 642.94 315.47 699.43 314.2 684.76 251.55 720.92 238.86 698.94 301.5 662.77 289.44 654.33 361.22 642.94"/>
  <use width="53.77" height="19.51" transform="translate(412.96 708.96) rotate(150) scale(2.93 2.67)" xlink:href="#Arrow_29"/>
  <circle class="cls-2" cx="564.65" cy="557.17" r="180.53"/>
  <circle class="cls-1" cx="564.65" cy="81.72" r="48.37"/>
  <circle class="cls-1" cx="123" cy="303.44" r="83.14"/>
  <circle class="cls-1" cx="564.65" cy="1014.16" r="32.49"/>
  <circle class="cls-1" cx="982.38" cy="799.62" r="57.77"/>
  <circle class="cls-1" cx="174.23" cy="783.88" r="26.83"/>
  <circle class="cls-1" cx="950.21" cy="335.81" r="18.05"/>
  <line class="cls-3" x1="563.53" y1="558.45" x2="564.65" y2="558.41"/>
  <text class="cls-7" transform="translate(497.11 606.87)"><tspan x="0" y="0">μ</tspan></text>
</svg>